Coordinates
version=1
nRows=13
nColumns=40
inDegrees=yes

Units are S.I. units (second, meters, Newtons, ...)
Angles are in degrees.

endheader
time	pelvis_tilt	pelvis_list	pelvis_rotation	pelvis_tx	pelvis_ty	pelvis_tz	hip_flexion_r	hip_adduction_r	hip_rotation_r	knee_angle_r	knee_angle_r_beta	ankle_angle_r	subtalar_angle_r	mtp_angle_r	hip_flexion_l	hip_adduction_l	hip_rotation_l	knee_angle_l	knee_angle_l_beta	ankle_angle_l	subtalar_angle_l	mtp_angle_l	lumbar_extension	lumbar_bending	lumbar_rotation	arm_flex_r	arm_add_r	arm_rot_r	elbow_flex_r	pro_sup_r	wrist_flex_r	wrist_dev_r	arm_flex_l	arm_add_l	arm_rot_l	elbow_flex_l	pro_sup_l	wrist_flex_l	wrist_dev_l
      0.00000000	     -3.90770212	      0.35136296	      2.82355441	     -1.08281758	      0.88158513	     -1.42125710	     -0.57566658	     -1.00755177	     -8.70656746	    -41.02701887	     -0.71605656	     -2.47822882	      0.89450510	     -1.39528753	     30.79222494	      1.86210113	      7.45863159	    -32.17104706	     -0.56149070	      1.45127063	     11.81671107	      1.99261351	     -1.32374963	     -3.99369171	      2.77030658	     -1.02867565	     -8.44997134	    -14.12575154	     35.52732855	     89.95437384	      0.00000000	      0.00000000	     -8.40940006	      7.15106471	     26.94786077	     20.13625362	     89.95437384	      0.00000000	      0.00000000
      0.01000000	     -3.67964176	      0.55355878	      2.93653716	     -1.07224789	      0.88296698	     -1.42372042	      0.26108374	     -1.66164050	     -9.24155103	    -43.37155292	     -0.75697640	     -6.70302782	     -0.52891895	     -0.45591395	     29.81745061	      1.37876150	      7.14866037	    -32.33224484	     -0.56430413	      2.18339792	     12.14050780	      2.40935314	     -1.46955526	     -4.31289585	      2.34907074	     -1.16428432	     -8.23997691	    -14.21406905	     34.62234654	     89.95437384	      0.00000000	      0.00000000	     -8.01500303	      7.47926120	     27.07830880	     20.15534005	     89.95437384	      0.00000000	      0.00000000
      0.02000000	     -3.52709804	      0.66574224	      2.94419041	     -1.06228100	      0.88416105	     -1.42610098	      1.32102555	     -2.19661111	     -9.38899282	    -45.70472509	     -0.79769794	    -10.76781943	     -0.91004635	      0.21406900	     28.94853395	      1.17243115	      7.34214358	    -32.51322411	     -0.56746281	      3.08712423	     11.88493358	      2.41853277	     -1.58554665	     -4.50938421	      2.06960836	     -1.33416187	     -8.19105489	    -13.86487694	     33.76413330	     89.95437384	      0.00000000	      0.00000000	     -7.57238159	      7.79368322	     26.91510061	     20.30243522	     89.95437384	      0.00000000	      0.00000000
      0.03000000	     -3.57261004	      0.94806311	      2.99236923	     -1.05297251	      0.88512610	     -1.42845889	      2.76095788	     -2.79551670	     -9.25323349	    -48.18217350	     -0.84093757	    -13.82533935	     -2.38907103	      1.07229318	     28.23172702	      0.75718449	      7.54565915	    -32.46258425	     -0.56657898	      3.51830083	     11.59758899	      2.64064742	     -1.59224572	     -4.91929978	      1.70210897	     -1.52365703	     -8.11805625	    -13.43814367	     33.14097209	     89.95437384	      0.00000000	      0.00000000	     -7.08497020	      8.09799273	     27.15157850	     20.55854901	     89.95437384	      0.00000000	      0.00000000
      0.04000000	     -3.45905623	      1.02195469	      3.04510918	     -1.04383730	      0.88626645	     -1.43073297	      4.03038578	     -3.14622397	     -9.15277627	    -50.55864875	     -0.88241489	    -15.20145030	     -3.09902445	      1.46064761	     27.32112051	      0.60719596	      7.85067114	    -32.37360198	     -0.56502595	      4.27785081	     11.02107221	      2.65232474	     -1.76108131	     -5.03891301	      1.35509391	     -1.55913736	     -8.10451182	    -13.05446080	     32.26559706	     89.95437384	      0.00000000	      0.00000000	     -6.44238674	      8.42507636	     27.11496981	     20.64909184	     89.95437384	      0.00000000	      0.00000000
      0.05000000	     -3.15939686	      0.77828812	      3.26444338	     -1.03479527	      0.88753117	     -1.43283358	      5.05921778	     -3.10308565	     -9.33243952	    -52.72280278	     -0.92018650	    -15.32579148	     -3.56344901	      1.50566864	     26.28949222	      0.83785022	      8.11340313	    -32.30610682	     -0.56384793	      4.59006401	     10.66380945	      2.60391198	     -2.21217175	     -4.79150435	      0.82550112	     -1.74395991	     -8.06583755	    -12.84134995	     31.92997685	     89.95437384	      0.00000000	      0.00000000	     -5.89381159	      8.74638407	     26.96275241	     21.08359209	     89.95437384	      0.00000000	      0.00000000
      0.06000000	     -3.58596116	      1.38739782	      2.82109524	     -1.02626016	      0.88772902	     -1.43445974	      7.33739697	     -4.06535066	     -9.15090587	    -55.48292455	     -0.96835971	    -15.24468964	     -7.45961008	      2.84009290	     25.79212896	      0.25631831	      8.92818947	    -31.94961736	     -0.55762602	      5.19077814	     10.31705130	      2.85507629	     -1.78986244	     -5.54286317	      0.96539908	     -1.85421893	     -8.09027308	    -11.92328018	     31.09425013	     89.95437384	      0.00000000	      0.00000000	     -5.36412422	      9.13126114	     27.08276680	     21.50838280	     89.95437384	      0.00000000	      0.00000000
      0.07000000	     -3.49314874	      1.34191902	      2.72487104	     -1.01760487	      0.88871685	     -1.43609348	      8.88107907	     -4.24728088	     -9.32664989	    -57.77103071	     -1.00829470	    -13.05247423	     -8.96664898	     14.42205302	     24.92773198	      0.34397415	      9.36671892	    -31.87592462	     -0.55633984	      6.20895231	      9.29584404	      6.01444866	     -1.99623094	     -5.50517833	      0.77733910	     -1.93028016	     -8.10248380	    -11.48841766	     30.46650457	     89.95437384	      0.00000000	      0.00000000	     -4.65644563	      9.45289677	     27.16514951	     21.80509926	     89.95437384	      0.00000000	      0.00000000
      0.08000000	     -3.21163784	      1.35943631	      2.64655241	     -1.00888290	      0.88999281	     -1.43788771	     10.03927371	     -4.59952508	     -9.66171925	    -59.51708967	     -1.03876918	    -12.13682281	    -10.65385813	     14.28160232	     23.79596146	      0.27915157	      9.54845816	    -31.64271876	     -0.55226963	      6.80300081	      8.87668392	      5.84222354	     -2.42636637	     -5.50357396	      0.62718849	     -1.98640433	     -8.12451518	    -11.07493304	     29.79479669	     89.95437384	      0.00000000	      0.00000000	     -3.88817244	      9.79511993	     27.12403048	     22.15063572	     89.95437384	      0.00000000	      0.00000000
      0.09000000	     -3.05836156	      1.53152792	      2.50177381	     -1.00021382	      0.89110929	     -1.43949199	     11.38532829	     -5.01410648	     -9.78910711	    -61.06931870	     -1.06586068	    -12.12833624	    -13.17596179	     14.64019686	     22.70830938	      0.07668574	      9.94356283	    -31.20153178	     -0.54456946	      7.35510183	      8.54570802	      5.70922740	     -2.71586411	     -5.67962717	      0.40429409	     -2.05884894	     -8.12128382	    -10.46652285	     29.27897580	     89.95437384	      0.00000000	      0.00000000	     -3.25348815	     10.13574560	     27.36735611	     22.64587706	     89.95437384	      0.00000000	      0.00000000
      0.10000000	     -2.84104868	      1.41380702	      2.53263568	     -0.99151155	      0.89231630	     -1.44111545	     12.59967361	     -5.10497741	    -10.11106832	    -62.31748300	     -1.08764526	    -11.14154059	    -14.88332926	     14.75730612	     21.68690938	      0.11393717	      9.93261493	    -30.96190998	     -0.54038727	      7.62830542	      8.30155173	      5.59301487	     -3.06600958	     -5.52343774	      0.11376153	     -2.19471460	     -8.15355629	    -10.07759482	     28.79448491	     89.95437384	      0.00000000	      0.00000000	     -2.54892592	     10.44342944	     27.61616396	     23.14955468	     89.95437384	      0.00000000	      0.00000000
      0.11000000	     -2.85838659	      1.31784347	      2.58235920	     -0.98301753	      0.89314758	     -1.44266073	     14.11154622	     -5.15520015	    -10.33946448	    -63.43664400	     -1.10717830	    -10.76087452	    -16.34812723	     16.76440255	     20.95782710	      0.18789717	     10.13855464	    -30.74473283	     -0.53659682	      7.87781488	      7.84845114	      5.27566606	     -3.14859070	     -5.41875821	     -0.30800956	     -2.29863925	     -8.22269594	     -9.37631721	     28.27816966	     89.95437384	      0.00000000	      0.00000000	     -2.06176208	     10.72416879	     28.17720933	     23.95921641	     89.95437384	      0.00000000	      0.00000000
      0.12000000	     -2.68382953	      1.19046404	      2.69147045	     -0.97437420	      0.89426526	     -1.44412827	     15.25275316	     -5.17639755	    -10.57097202	    -64.17210133	     -1.12001446	     -9.51944092	    -16.78439258	     16.78029008	     19.95839855	      0.23361573	     10.09671270	    -30.46004216	     -0.53162803	      8.37529341	      7.57355626	      5.08928557	     -3.44572875	     -5.26726420	     -0.69671638	     -2.43874326	     -8.16296347	     -9.28852943	     27.86794476	     89.95437384	      0.00000000	      0.00000000	     -1.47352387	     11.09441923	     28.23451296	     24.65172885	     89.95437384	      0.00000000	      0.00000000
